<?xml version="1.0" standalone="no"?><!DOCTYPE svg PUBLIC "-//W3C//DTD SVG 1.1//EN" "http://www.w3.org/Graphics/SVG/1.1/DTD/svg11.dtd"><svg t="1516154998462" class="icon" style="" viewBox="0 0 1025 1024" version="1.1" xmlns="http://www.w3.org/2000/svg" p-id="5452" xmlns:xlink="http://www.w3.org/1999/xlink" width="200.1953125" height="200"><defs><style type="text/css"></style></defs><path d="M102.7328 923.89888c-16.69632 0-30.27968-13.48096-30.27968-30.04416l0-73.63584c0-73.54368 22.2464-144.35328 64.33792-204.75904 41.10336-58.98752 98.16576-104.20224 165.02272-130.7392l11.00288-4.37248-9.33376-7.28576C250.88 432.01024 220.70784 370.6624 220.70784 304.74752c0-118.07232 96.72192-214.12864 215.6032-214.12864 118.87616 0 215.59808 96.06144 215.59808 214.12864 0 65.91488-30.17216 127.26272-82.76992 168.32l-9.33376 7.28576 11.00288 4.37248c66.86208 26.53696 123.92448 71.73632 165.02272 130.71872 42.0864 60.40576 64.3328 131.22048 64.3328 204.77952l0 73.63584c0 16.5632-13.58336 30.03904-30.27968 30.03904L102.7328 923.89888 102.7328 923.89888zM436.352 518.88128c-167.25504 0-303.32928 135.18336-303.32928 301.3376l0 43.60192 606.58688 0 0-43.60192C739.60448 654.06464 603.56608 518.88128 436.352 518.88128L436.352 518.88128zM436.31616 150.69184c-85.48864 0-155.03872 69.10976-155.03872 154.0608 0 84.94592 69.55008 154.05568 155.03872 154.05568 85.48352 0 155.0336-69.10976 155.0336-154.05568C591.34976 219.8016 521.79968 150.69184 436.31616 150.69184L436.31616 150.69184zM858.06592 813.43488c-0.36352-20.15232-2.37056-40.28928-5.96992-60.06272l35.37408 0 0-26.9312c0-104.2944-71.06048-194.95936-172.8-220.47744l-7.0144-1.664c-12.99456-4.4288-21.70368-15.68768-21.70368-28.10368 0-12.1088 8.09984-22.98368 20.6336-27.70432l0.2048-0.0768 0.19456-0.09216c42.09664-18.98496 69.29408-60.8768 69.29408-106.71616 0-49.65888-31.44192-93.48096-78.592-110.11584-7.91552-23.09632-19.49184-44.68736-34.44224-64.24064-0.60928-0.99328-1.22368-1.98144-1.83808-2.9696 97.00864 1.65888 175.43168 80.56832 175.43168 177.32608 0 43.89376-16.49664 86.13376-46.44352 118.9376l-5.97504 6.54848 7.8848 4.06016c96.05632 49.41824 155.7248 147.23584 155.71968 255.28832l0 56.96c0 16.55808-13.57824 30.0288-30.27456 30.0288L858.06592 813.42976 858.06592 813.43488z" p-id="5453"></path></svg>